<svg xmlns="http://www.w3.org/2000/svg" width="162.878" height="48.415" viewBox="0 0 162.878 48.415">
  <g id="Logo" transform="translate(0)">
    <path id="Path_7597" data-name="Path 7597" d="M1751.134,186.11a13.551,13.551,0,0,0-1.263,2.2,4.209,4.209,0,0,0-.246.747.866.866,0,0,0,.607,1.194,5.046,5.046,0,0,0,2.58.335c1.36-.168,1.709-.522,1.972-1.873a8.3,8.3,0,0,0,.153-1.6c0-2.653-.007-5.307.006-7.96,0-.309-.088-.379-.385-.372q-4.357.109-8.716.035a11.436,11.436,0,0,1-2.42-.193,4.885,4.885,0,0,1-3.646-3.315,12.285,12.285,0,0,1-.632-4.988,24.563,24.563,0,0,1,1.619-7.314,7.521,7.521,0,0,1,4.16-4.165,6.05,6.05,0,0,1,3.022-.646c.919.07,1.836.2,2.754.295.607.064,1.222.1,1.832.151.644.057,1.288.113,1.93.186a.771.771,0,0,0,.694-.19,3.068,3.068,0,0,1,2.536-.854c1.07.068,2.149,0,3.223.019.4.008.807.021,1.206.06a1.546,1.546,0,0,1,1.2.879,4.564,4.564,0,0,1,.482,1.894,10.578,10.578,0,0,1-2.284,7.068.23.23,0,0,1-.324.1q-3-1.078-6-2.139a.291.291,0,0,1-.229-.331c.011-.669.005-1.338,0-2.007,0-.126.037-.269-.177-.272a19.7,19.7,0,0,0-3.542.158,2.62,2.62,0,0,0-1.935,1.517,5.406,5.406,0,0,0-.573,2.21,39.361,39.361,0,0,0-.008,5.651,3.244,3.244,0,0,0,2.637,3.255c.315.091.635.169.957.229a8.97,8.97,0,0,0,2.55.151c.26-.026.323-.1.321-.353-.01-1.721,0-3.443-.007-5.164,0-.176-.009-.321.243-.321a13.862,13.862,0,0,1,5.3.767,4.079,4.079,0,0,1,1.256.765.565.565,0,0,1,.2.458c-.049,4.078-.143,8.155-.251,12.232-.026,1.005-.1,2.009-.124,3.015-.029,1.122-.116,2.242-.188,3.362-.026.4-.1.8-.122,1.2a1,1,0,0,1-.6.873,10.729,10.729,0,0,1-2.412.842,61.353,61.353,0,0,1-7.008,1.271c-1.412.187-2.827.347-4.247.459a36.171,36.171,0,0,1-5.017.139,1.811,1.811,0,0,1-1.657-1.081,6.6,6.6,0,0,1-.586-2.344,38.656,38.656,0,0,1-.061-5.159,6.92,6.92,0,0,1,.438-2.28,3.845,3.845,0,0,1,.236-.5c.374-.65.573-.735,1.292-.56l8.962,2.185c.084.021.166.052.284.089" transform="translate(-1624.667 -147.388)" fill="#fff"/>
    <path id="Path_7598" data-name="Path 7598" d="M.009,178.822c0-3.432,0-6.864-.008-10.3,0-.295.077-.418.365-.488a19.911,19.911,0,0,1,7.114-.406,3.781,3.781,0,0,1,2.434,1.536c.369.429.374.454.9.207,1.128-.533,2.241-1.1,3.369-1.632a11.071,11.071,0,0,1,2.877-.993,2.159,2.159,0,0,1,2.489,1.261,4.753,4.753,0,0,1,.465,1.9c.014.331.12.311.361.214,2.154-.863,4.322-1.69,6.514-2.451a28.823,28.823,0,0,1,3.233-.985,1.1,1.1,0,0,1,1.48.672,11.021,11.021,0,0,1,.981,3.121,26.724,26.724,0,0,1,.553,4.592c.028,1.1.143,2.2.2,3.3.062,1.124.117,2.249.192,3.372.108,1.6.16,3.208.286,4.809.051.654-.015,1.312.1,1.962.034.195-.046.272-.237.3-1.488.194-2.975.39-4.461.6-.272.038-.244-.112-.243-.284,0-1.568.043-3.137-.005-4.7a30.159,30.159,0,0,0-.368-4.969,2.467,2.467,0,0,0-2.445-2.135,14.1,14.1,0,0,0-4.265.446,3.542,3.542,0,0,0-.551.21,1.328,1.328,0,0,0-.846,1.157c-.064.709-.142,1.417-.2,2.127-.2,2.62-.171,5.247-.246,7.871-.008.272-.088.363-.363.357-1.141-.024-2.277.094-3.416.137-1.158.044-2.315.124-3.474.18-.532.026-.528.018-.513-.5.1-3.5.21-6.991.28-10.487a21.977,21.977,0,0,0-.287-4.684c-.308-1.576-.735-1.942-2.333-1.929a10.5,10.5,0,0,0-4.079.893,2.512,2.512,0,0,0-1.635,2.316c-.1,1.331-.2,2.661-.258,3.994-.129,3.229-.14,6.46-.125,9.691,0,.287-.091.336-.351.34-1.052.015-2.1.043-3.156.092-.294.014-.337-.089-.337-.349Q.015,184,.009,178.822" transform="translate(-0.001 -155.661)" fill="#fff"/>
    <path id="Path_7599" data-name="Path 7599" d="M1372.993,183.6c0,2.007-.005,4.014.006,6.021,0,.27-.079.342-.345.368-1.348.13-2.7.237-4.047.371-1.078.107-2.16.2-3.241.277-.554.042-.549.037-.472-.531q.626-4.623,1.247-9.246.577-4.265,1.158-8.529c.207-1.53.414-3.06.605-4.592a.306.306,0,0,1,.3-.31c1.69-.315,3.38-.628,5.066-.957.226-.044.26.013.257.214-.009.669,0,1.338-.007,2.007,0,.211.065.282.276.3q2.682.221,5.363.462c1.176.1,2.356.176,3.525.332a4.679,4.679,0,0,1,3.458,2.142,7.684,7.684,0,0,1,1.313,4.433c-.014.921-.031,1.842-.073,2.762-.045.983-.111,1.964-.186,2.945-.177,2.313-.4,4.621-.776,6.912-.039.235-.125.274-.335.271q-4.177-.074-8.354-.131c-.208,0-.283-.05-.278-.275q.128-5.393.241-10.786c.01-.471.025-.943.022-1.414a1.123,1.123,0,0,0-1.094-1.132c-.49-.03-.98-.025-1.471-.055a2,2,0,0,0-2.151,2.156c-.006,2,0,3.992,0,5.988" transform="translate(-1275.038 -155.505)" fill="#fff"/>
    <path id="Path_7600" data-name="Path 7600" d="M2167.21,174.438a30.651,30.651,0,0,0-.425-3.881,4.077,4.077,0,0,0-3.178-3.5,41.008,41.008,0,0,0-7.875-1,22.248,22.248,0,0,0-5.212.572,6.2,6.2,0,0,0-4.4,3.424,3.93,3.93,0,0,0-.449,1.831q-.027,2.006-.085,4.011a30.151,30.151,0,0,0,.684,7.669,12.306,12.306,0,0,0,1.954,4.662,4.541,4.541,0,0,0,3.692,1.893c.931.026,1.864.005,2.8.005.888,0,1.776,0,2.664,0a6.085,6.085,0,0,0,3.183-.894c.585-.345,1.152-.721,1.741-1.058a7.536,7.536,0,0,0,2.667-2.667,15.355,15.355,0,0,0,2.026-5.923,25.627,25.627,0,0,0,.22-5.138m-6.866,3.925a5.207,5.207,0,0,1-.828,1.849,4.523,4.523,0,0,1-3.758,2c-.779-.016-1.557.008-2.335-.006a2.1,2.1,0,0,1-1.88-1.068,8.32,8.32,0,0,1-.992-3.176,15.932,15.932,0,0,1-.118-3.771,14.672,14.672,0,0,1,.013-1.872,3.022,3.022,0,0,1,2.729-2.516,15.869,15.869,0,0,1,5.62.205,2.118,2.118,0,0,1,1.767,1.872,14.713,14.713,0,0,1-.219,6.481" transform="translate(-2004.372 -155.113)" fill="#fff"/>
    <path id="Path_7601" data-name="Path 7601" d="M1049.993,175.9c-.022-1.673-.195-3.337-.313-5-.11-1.558-.287-3.108-.428-4.662-.11-1.221-.286-2.436-.458-3.65a7.4,7.4,0,0,0-1.47-3.573,2.59,2.59,0,0,0-2.046-1.083c-.339-.011-.677-.057-1.016-.074a51.779,51.779,0,0,0-9.377.149,9.794,9.794,0,0,0-2.67.659,1.827,1.827,0,0,0-.934.695,7.3,7.3,0,0,0-1.141,4.445c.151,1.479.349,1.848,1.884,2.176a9.376,9.376,0,0,0,2.39.171,17.664,17.664,0,0,0,2.642-.133.666.666,0,0,0,.641-.788c-.009-.1-.033-.194-.051-.291a1.186,1.186,0,0,1,.956-1.612,11.6,11.6,0,0,1,3.6-.5c1.31.023,1.562.241,1.877,1.509a25.251,25.251,0,0,1,.563,3.889c.011.132-.083.1-.149.116a5.522,5.522,0,0,1-1.229.109c-1.346.082-2.687.2-4.03.317-1.428.124-2.856.236-4.28.409q-1.058.128-2.118.249a1.485,1.485,0,0,0-1.262,1.052,6.2,6.2,0,0,0-.4,2.055,37.293,37.293,0,0,0,.146,4.72,4.718,4.718,0,0,0,.311,1.506,1.94,1.94,0,0,0,1.587,1.306,17.7,17.7,0,0,0,1.833.157c2.389.07,4.774-.041,7.157-.2.864-.057.863-.074.994.794.068.451.29.644.734.6a17.974,17.974,0,0,0,4.313-.975,2.582,2.582,0,0,0,1.76-2.144,13.509,13.509,0,0,0-.016-2.386m-3.951-.635a2.183,2.183,0,0,1-2.316,1.937c-.427.02-.856,0-1.283,0a14.635,14.635,0,0,1-1.74-.057,1.769,1.769,0,0,1-1.618-1.411,10.048,10.048,0,0,1-.277-2.869,2.207,2.207,0,0,1,.982-1.71,4.317,4.317,0,0,1,2.536-.865,15.037,15.037,0,0,1,2.109.057,1.526,1.526,0,0,1,1.219.94,3.763,3.763,0,0,1,.353,1.36,11.28,11.28,0,0,1,.036,2.615" transform="translate(-962.32 -147.332)" fill="#fff"/>
    <path id="Path_7602" data-name="Path 7602" d="M715.7.071q-.107,6.543-.214,13.087-.063,3.831-.127,7.661-.1,6.083-.2,12.166c-.005.318-.03.635-.026.953,0,.189-.064.242-.249.236-1.293-.042-2.586-.072-3.879-.112-.887-.027-1.774-.07-2.662-.09-.211,0-.274-.064-.279-.278-.059-2.367-.128-4.733-.2-7.1q-.171-6.032-.342-12.063-.124-4.355-.25-8.71c-.043-1.479-.08-2.958-.133-4.437-.009-.261.038-.327.315-.272,1.032.2,2.086.265,3.124.418a6.059,6.059,0,0,0,3.74-.8c.446-.229.88-.484,1.319-.727l.059.071" transform="translate(-660.604)" fill="#fff"/>
    <path id="Path_7603" data-name="Path 7603" d="M876.688.071q-.107,6.543-.214,13.087-.063,3.831-.127,7.661-.1,6.083-.2,12.166c-.005.318-.03.636-.026.953,0,.189-.063.242-.249.236-1.293-.042-2.586-.072-3.879-.112-.887-.027-1.774-.07-2.662-.09-.211,0-.274-.064-.279-.278-.059-2.367-.128-4.733-.2-7.1q-.171-6.032-.342-12.063-.124-4.355-.25-8.71c-.042-1.479-.08-2.958-.133-4.437-.009-.261.038-.327.315-.272,1.032.2,2.086.265,3.124.418a6.059,6.059,0,0,0,3.74-.8c.446-.229.88-.484,1.319-.727l.059.071" transform="translate(-811)" fill="#fff"/>
    <path id="Path_7604" data-name="Path 7604" d="M553.445,242.252q2.765-.152,5.529-.3c.755-.04,1.511-.065,2.266-.1.155-.008.27.009.219.206a8.853,8.853,0,0,0-.1,1.459c-.1,1.073-.081,2.156-.157,3.232-.169,2.375-.242,4.754-.387,7.13-.1,1.569-.176,3.139-.263,4.709a3.747,3.747,0,0,0-.066.68c.024.2-.121.166-.238.167h-1.414c-1.524,0-3.047-.005-4.571.006-.238,0-.325-.056-.33-.3-.017-.865-.056-1.73-.084-2.6q-.108-3.4-.213-6.8-.121-3.708-.251-7.417l.062-.068" transform="translate(-516.966 -225.93)" fill="#fff"/>
    <path id="Path_7605" data-name="Path 7605" d="M553.59,28.377c0,1.161-.008,2.323.007,3.484,0,.255-.074.294-.312.3-.842.022-1.68-.063-2.52-.083-1.165-.028-2.33-.105-3.5-.127-.29-.005-.584-.058-.878-.057-.226,0-.174-.149-.158-.271.113-.89.231-1.78.346-2.669.255-1.975.514-3.95.757-5.926.033-.266.077-.352.367-.262q2.8.87,5.618,1.706a.329.329,0,0,1,.276.389c-.012,1.172-.006,2.345-.006,3.517" transform="translate(-510.27 -21.235)" fill="#fff"/>
    <path id="Path_7606" data-name="Path 7606" d="M154.76,371.492c-.509,0-.509,0-.452-.5a.846.846,0,0,1,.024-.127c.088-.318.184-.606-.112-.911a.6.6,0,0,1,.131-.851.676.676,0,0,1,.872-.031c.259.206.4.626.187.841-.336.339-.194.706-.172,1.061.032.517.054.516-.479.517" transform="translate(-143.954 -344.65)" fill="#fff"/>
    <path id="Path_7607" data-name="Path 7607" d="M406.8,416.242c-.465,0-.465,0-.433-.449a.737.737,0,0,1,.02-.162.681.681,0,0,0-.112-.762.53.53,0,0,1,.115-.76.663.663,0,0,1,.871-.008c.238.2.342.571.128.755-.322.277-.206.578-.161.881.075.5.085.5-.428.5" transform="translate(-379.428 -386.702)" fill="#fff"/>
    <path id="Path_7608" data-name="Path 7608" d="M836.355.071,836.3,0c.044,0,.067.025.059.071" transform="translate(-781.261)" fill="#fff"/>
    <path id="Path_7609" data-name="Path 7609" d="M997.345.071,997.286,0c.045,0,.067.025.059.071" transform="translate(-931.657)" fill="#fff"/>
    <path id="Path_7610" data-name="Path 7610" d="M553.43,248.02l-.062.068c-.006-.047.016-.068.062-.068" transform="translate(-516.952 -231.698)" fill="#fff"/>
  </g>
</svg>
